<svg xmlns="http://www.w3.org/2000/svg" viewBox="0 0 2000 1000" width="350" height="175">
	<style>
		tspan { white-space:pre }
		.shp0 { fill: #ffb13c } 
		.shp1 { fill: #0d151f } 
		.shp2 { fill: #ff9434 } 
	</style>
	<g >
		<g >
			<path class="shp0" d="M813.94 690.08C830.26 618.46 810.54 540.28 754.76 484.5C698.98 428.71 620.8 409 549.17 425.32C532.85 496.95 552.57 575.12 608.35 630.91C664.13 686.69 742.31 706.41 813.94 690.08Z" />
			<path fill-rule="evenodd" class="shp1" d="M824.44 575.55C835.45 613.82 836.54 654.38 827.7 693.18L825.72 701.87L817.03 703.85C695.79 731.47 573.24 659.93 538.67 539.86C527.66 501.58 526.57 461.02 535.41 422.22L537.39 413.54L546.08 411.56C667.32 383.93 789.87 455.48 824.44 575.55ZM801.99 678.13C826.02 546.32 720.46 426.84 586.92 434.22C637.44 469.88 683.14 513.68 704.05 573C661.17 528.29 616.1 485.97 558.1 462.58L558.1 462.52C550.36 596.27 669.95 702.2 801.99 678.13Z" />
			<path class="shp0" d="M219.67 690.08C203.35 618.46 223.06 540.28 278.84 484.5C334.63 428.71 412.8 409 484.43 425.32C500.75 496.95 481.04 575.12 425.25 630.91C369.47 686.69 291.29 706.41 219.67 690.08Z" />
			<path fill-rule="evenodd" class="shp1" d="M487.53 411.56L496.22 413.54L498.2 422.22C507.03 461.02 505.95 501.58 494.93 539.86C460.37 659.93 337.81 731.46 216.57 703.85L207.88 701.87L205.9 693.18C197.06 654.38 198.15 613.82 209.17 575.55C243.73 455.48 366.29 383.93 487.53 411.56ZM475.5 462.52L475.5 462.58C417.5 485.97 372.43 528.29 329.55 572.99C350.46 513.68 396.17 469.88 446.69 434.22C313.14 426.84 207.59 546.32 231.62 678.13C363.65 702.21 483.24 596.27 475.5 462.52Z" />
			<path class="shp2" d="M704.05 573C661.15 528.27 616.09 485.97 558.1 462.58L557.82 480.45C613.48 499.16 659.79 535.07 704.05 573ZM646.26 454.99C742.64 480.09 812.85 574.5 801.99 678.13C822.16 567.46 750.99 465.48 648.59 439.98C628.5 434.98 607.79 433.06 586.92 434.22C593.56 438.91 600.12 443.74 606.56 448.73L619.87 449.95L646.26 454.99Z" />
			<path class="shp2" d="M329.55 572.99C372.46 528.27 417.51 485.97 475.5 462.58L475.78 480.45C420.12 499.16 373.82 535.07 329.55 572.99ZM387.35 454.99C290.96 480.09 220.75 574.5 231.62 678.13C211.44 567.46 282.62 465.48 385.01 439.98C405.1 434.98 425.82 433.06 446.69 434.22C440.04 438.91 433.48 443.74 427.05 448.73L413.73 449.95L387.35 454.99Z" />
			<path class="shp1" d="M500.73 587.55C496.42 596.41 491.65 604.95 486.44 613.13C496.4 614.31 506.52 614.94 516.8 614.94C527.08 614.94 537.21 614.31 547.16 613.13C541.95 604.95 537.18 596.41 532.87 587.55C527.56 587.92 522.2 588.13 516.8 588.13C511.4 588.13 506.04 587.92 500.73 587.55Z" />
			<path class="shp1" d="M427.04 678.14C454.99 688.58 485.2 694.39 516.8 694.39C548.4 694.39 578.61 688.59 606.56 678.14C598.4 671.82 590.61 665.01 583.24 657.73C562.19 664.07 539.92 667.58 516.8 667.58C493.68 667.58 471.41 664.07 450.36 657.72C442.98 665.01 435.2 671.82 427.04 678.14Z" />
			<path fill-rule="evenodd" class="shp1" d="M623.14 689.98C630.85 695.03 638.81 699.69 647.02 703.89C632.26 753.46 606.93 788.01 577.54 807.38C564.59 815.91 550.87 821.55 536.9 824.31L516.52 876.89L496.7 824.31C482.73 821.55 469.02 815.91 456.07 807.38C426.67 788.01 401.34 753.46 386.58 703.89C394.79 699.68 402.75 695.02 410.46 689.96C413.08 699.76 416.09 708.97 419.52 717.45C449.08 731.27 482.01 739.08 516.8 739.08C551.59 739.08 584.52 731.26 614.09 717.45C617.52 708.98 620.52 699.76 623.14 689.98ZM594.32 753.92C569.86 761.66 543.83 765.88 516.8 765.89C489.77 765.88 463.75 761.66 439.29 753.92C448.73 767.13 459.35 777.58 470.73 785.08C499.86 804.27 533.75 804.27 562.88 785.08C574.26 777.58 584.88 767.13 594.32 753.92Z" />
			<path class="shp1" d="M662.61 123.7C634.65 127.57 609.85 142.62 591.19 164.95C572.58 187.23 560.1 216.86 556.9 249.75C544.25 245.74 530.78 243.57 516.8 243.57C502.82 243.57 489.35 245.74 476.7 249.75C473.5 216.86 461.02 187.23 442.41 164.95C423.76 142.62 398.95 127.57 370.99 123.7C348.26 119.73 330.2 136.06 330.2 156.75C330.2 175.4 345.32 190.52 363.98 190.52C381.19 190.52 395.4 177.64 397.49 160.99C430.38 180.73 449.25 220.64 450.71 261.21C403.68 288.36 380.67 338.86 385.02 388C393.79 386.26 402.68 384.99 411.66 384.16C410.26 366.41 413.41 348.41 420.94 331.93C426.5 337.15 433.95 340.37 442.18 340.37C459.34 340.37 473.25 326.45 473.25 309.3C473.25 299.82 468.99 291.34 462.3 285.64C494.68 266.08 535.2 265.43 568.1 283.75C560.01 289.36 554.7 298.7 554.71 309.29C554.7 326.45 568.62 340.37 585.78 340.37C595.99 340.37 605.02 335.42 610.68 327.81C619.66 345.39 623.46 364.92 621.94 384.17C630.92 384.99 639.81 386.27 648.58 388.01C652.94 338.86 629.93 288.36 582.89 261.21C584.35 220.65 603.22 180.73 636.11 160.99C638.2 177.64 652.41 190.52 669.63 190.52C688.28 190.52 703.41 175.4 703.4 156.75C703.41 136.06 685.34 119.73 662.61 123.7Z" />
		</g>
		<path fill="#0d151f" aria-label="BeeORM"  d="M948.97 378.62L948.97 523L1005.46 523C1033.49 523 1051.41 511.62 1051.41 482.11C1051.41 462.3 1043.19 453.44 1030.75 448.6C1042.34 442.27 1047.82 433.63 1047.82 416.14C1047.82 389.37 1032.44 378.62 1003.77 378.62ZM1003.77 459.98C1015.15 459.98 1027.38 464.4 1027.38 480.84C1027.38 498.13 1018.74 502.77 1004.19 502.77L972.37 502.77L972.37 459.98ZM1002.51 398.85C1016.84 398.85 1024.01 404.97 1024.01 418.88C1024.01 433 1017.68 440.17 1003.35 440.17L972.37 440.17L972.37 398.85ZM1117.38 505.29C1099.88 505.29 1093.56 496.86 1093.35 480L1158.69 480L1160.17 463.56C1160.17 430.68 1145.41 415.29 1115.9 415.29C1086.82 415.29 1070.16 432.79 1070.16 471.36C1070.16 508.46 1082.39 525.32 1114.01 525.32C1132.55 525.32 1156.58 520.47 1156.58 520.47L1156.16 503.4C1156.16 503.4 1134.03 505.29 1117.38 505.29ZM1093.14 462.3C1093.35 442.06 1100.31 434.26 1115.9 434.26C1131.29 434.26 1137.61 441.22 1137.61 462.3ZM1224.45 505.29C1206.96 505.29 1200.63 496.86 1200.42 480L1265.76 480L1267.24 463.56C1267.24 430.68 1252.49 415.29 1222.98 415.29C1193.89 415.29 1177.24 432.79 1177.24 471.36C1177.24 508.46 1189.46 525.32 1221.08 525.32C1239.63 525.32 1263.66 520.47 1263.66 520.47L1263.24 503.4C1263.24 503.4 1241.1 505.29 1224.45 505.29ZM1200.21 462.3C1200.42 442.06 1207.38 434.26 1222.98 434.26C1238.36 434.26 1244.69 441.22 1244.69 462.3Z" />
		<path fill="#ff9433" aria-label="BeeORM"  d="M1344.59 504.87C1316.56 504.87 1310.03 487.59 1310.03 451.55C1310.03 415.72 1316.77 396.75 1344.59 396.75C1372.42 396.75 1378.95 415.72 1378.95 451.55C1378.95 488.22 1372.63 504.87 1344.59 504.87ZM1344.59 525.32C1389.7 525.32 1403.19 500.66 1403.19 451.55C1403.19 403.07 1389.7 376.3 1344.59 376.3C1299.49 376.3 1285.79 403.28 1285.79 451.55C1285.79 500.24 1299.28 525.32 1344.59 525.32ZM1487.71 471.57L1508.58 523L1534.29 523L1510.47 466.3C1525.86 459.14 1534.08 445.01 1534.08 424.57C1534.08 392.53 1517.01 378.62 1485.18 378.62L1430.38 378.62L1430.38 523L1453.78 523L1453.78 471.57ZM1510.05 424.78C1510.05 439.74 1503.31 451.34 1485.6 451.34L1453.78 451.34L1453.78 398.85L1485.18 398.85C1502.04 398.85 1510.05 408.34 1510.05 424.78ZM1560.64 523L1584.04 523L1584.04 404.54L1587.2 404.54L1621.34 517.1L1645.79 517.1L1679.94 404.54L1683.1 404.54L1683.1 523L1706.71 523L1706.71 378.62L1665.82 378.62L1633.57 491.38L1601.32 378.62L1560.64 378.62Z" />
		<path fill="#0d151f" aria-label="BUILD FOR SPEED"  d="M1062.58 586.43L1062.58 634L1081.19 634C1090.42 634 1096.32 630.25 1096.32 620.53C1096.32 614 1093.62 611.08 1089.52 609.49C1093.34 607.4 1095.14 604.56 1095.14 598.79C1095.14 589.98 1090.07 586.43 1080.63 586.43ZM1080.63 613.24C1084.38 613.24 1088.41 614.7 1088.41 620.11C1088.41 625.81 1085.56 627.33 1080.77 627.33L1070.28 627.33L1070.28 613.24ZM1080.21 593.1C1084.94 593.1 1087.3 595.11 1087.3 599.7C1087.3 604.35 1085.21 606.71 1080.49 606.71L1070.28 606.71L1070.28 593.1ZM1112.43 618.79L1112.43 586.43L1104.66 586.43L1104.66 618.65C1104.66 630.11 1110.77 634.76 1122.09 634.76C1133.47 634.76 1139.65 630.11 1139.65 618.65L1139.65 586.43L1131.88 586.43L1131.88 618.79C1131.88 625.18 1128.47 628.03 1122.09 628.03C1115.77 628.03 1112.43 625.25 1112.43 618.79ZM1150.21 634L1157.92 634L1157.92 586.43L1150.21 586.43ZM1195.55 634L1195.55 627.13L1176.6 627.13L1176.6 586.43L1168.89 586.43L1168.89 634ZM1218.33 634C1234.02 634 1237.36 624.49 1237.36 609.42C1237.36 594.63 1233.68 586.43 1218.33 586.43L1201.87 586.43L1201.87 634ZM1229.37 609.42C1229.37 619.83 1227.91 627.19 1218.33 627.19L1209.58 627.19L1209.58 593.17L1218.33 593.17C1227.91 593.17 1229.37 599 1229.37 609.42ZM1261.66 634L1269.37 634L1269.37 615.95L1287.49 615.95L1287.49 609.21L1269.37 609.21L1269.37 593.17L1291.17 593.17L1291.17 586.43L1261.66 586.43ZM1315.41 628.03C1306.17 628.03 1304.02 622.33 1304.02 610.46C1304.02 598.66 1306.24 592.41 1315.41 592.41C1324.57 592.41 1326.73 598.66 1326.73 610.46C1326.73 622.54 1324.64 628.03 1315.41 628.03ZM1315.41 634.76C1330.27 634.76 1334.71 626.64 1334.71 610.46C1334.71 594.49 1330.27 585.67 1315.41 585.67C1300.55 585.67 1296.03 594.56 1296.03 610.46C1296.03 626.5 1300.48 634.76 1315.41 634.76ZM1362.56 617.06L1369.43 634L1377.9 634L1370.06 615.32C1375.12 612.96 1377.83 608.31 1377.83 601.57C1377.83 591.02 1372.21 586.43 1361.72 586.43L1343.67 586.43L1343.67 634L1351.38 634L1351.38 617.06ZM1369.92 601.64C1369.92 606.57 1367.69 610.39 1361.86 610.39L1351.38 610.39L1351.38 593.1L1361.72 593.1C1367.28 593.1 1369.92 596.22 1369.92 601.64ZM1430.19 587.27C1430.19 587.27 1421.16 585.6 1415.12 585.6C1405.61 585.6 1399.29 589.56 1399.29 599.14C1399.29 607.4 1403.73 610.53 1414.01 613.17C1421.3 614.9 1423.45 616.29 1423.45 620.32C1423.45 625.32 1420.75 627.96 1414.84 627.96C1409.91 627.96 1400.54 626.71 1400.54 626.71L1399.78 632.89C1399.78 632.89 1409.15 634.76 1415.33 634.76C1424.7 634.76 1431.23 630.25 1431.23 619.83C1431.23 611.71 1427.62 609.07 1417.62 606.29C1409.5 604.07 1407 603.03 1407 598.59C1407 594.49 1409.98 592.41 1415.82 592.41C1419.84 592.41 1429.57 593.52 1429.57 593.52ZM1456.99 619.21C1467.83 619.21 1473.17 613.17 1473.17 602.4C1473.17 591.71 1467.83 586.43 1456.99 586.43L1439.56 586.43L1439.56 634L1447.27 634L1447.27 619.21ZM1447.27 612.54L1447.27 593.1L1456.92 593.1C1462.69 593.1 1465.26 595.88 1465.26 602.4C1465.26 609 1462.69 612.54 1456.92 612.54ZM1480.6 634L1510.6 634L1510.6 627.19L1488.31 627.19L1488.31 613.31L1506.43 613.31L1506.43 606.64L1488.31 606.64L1488.31 593.17L1510.6 593.17L1510.6 586.43L1480.6 586.43ZM1519 634L1549 634L1549 627.19L1526.71 627.19L1526.71 613.31L1544.83 613.31L1544.83 606.64L1526.71 606.64L1526.71 593.17L1549 593.17L1549 586.43L1519 586.43ZM1573.86 634C1589.55 634 1592.89 624.49 1592.89 609.42C1592.89 594.63 1589.21 586.43 1573.86 586.43L1557.4 586.43L1557.4 634ZM1584.9 609.42C1584.9 619.83 1583.44 627.19 1573.86 627.19L1565.11 627.19L1565.11 593.17L1573.86 593.17C1583.44 593.17 1584.9 599 1584.9 609.42Z" />
	</g>
</svg>