<svg xmlns="http://www.w3.org/2000/svg" viewBox="0 0 1200 1200" width="200" height="200">
	<style>
		tspan { white-space:pre }
		.shp0 { fill: #ffb13c } 
		.shp1 { fill: #0d151f } 
		.shp2 { fill: #ff9434 } 
		.txt3 { font-size: 159px;fill: #0d151f;font-weight: 600;font-family: "Titillium-Semibold", "Titillium";text-anchor: middle } 
		.txt4 { font-size: 53px;fill: #0d151f;font-weight: 600;font-family: "Titillium-Semibold", "Titillium";text-anchor: middle } 
	</style>
	<g >
		<g >
			<path class="shp0" d="M1049.35 899.42C1074.03 791.1 1044.22 672.88 959.86 588.52C875.5 504.16 757.27 474.35 648.95 499.03C624.27 607.35 654.09 725.57 738.45 809.93C822.8 894.29 941.03 924.11 1049.35 899.42Z" />
			<path fill-rule="evenodd" class="shp1" d="M1065.23 726.21C1081.89 784.09 1083.52 845.44 1070.16 904.1L1067.17 917.24L1054.03 920.24C870.68 962.01 685.34 853.82 633.07 672.24C616.42 614.36 614.77 553.02 628.14 494.35L631.13 481.21L644.27 478.21C827.62 436.44 1012.96 544.64 1065.23 726.21ZM1031.28 881.35C1067.62 682.02 907.99 501.32 706.03 512.48C782.43 566.41 851.55 632.66 883.17 722.35C818.32 654.75 750.16 590.75 662.45 555.38L662.45 555.28C650.75 757.55 831.6 917.75 1031.28 881.35Z" />
			<path class="shp0" d="M150.65 899.42C125.97 791.1 155.78 672.88 240.14 588.52C324.5 504.16 442.73 474.35 551.05 499.03C575.73 607.35 545.91 725.57 461.55 809.93C377.2 894.29 258.97 924.11 150.65 899.42Z" />
			<path fill-rule="evenodd" class="shp1" d="M555.73 478.21L568.87 481.21L571.86 494.35C585.23 553.02 583.58 614.36 566.93 672.24C514.65 853.82 329.32 962 145.97 920.24L132.83 917.24L129.84 904.1C116.47 845.43 118.11 784.09 134.77 726.21C187.04 544.63 372.38 436.44 555.73 478.21ZM537.55 555.28L537.54 555.38C449.84 590.75 381.68 654.75 316.83 722.35C348.45 632.66 417.57 566.42 493.97 512.48C292.01 501.32 132.38 682.02 168.72 881.35C368.39 917.75 549.25 757.54 537.55 555.28Z" />
			<path class="shp2" d="M883.17 722.35C818.29 654.71 750.15 590.74 662.45 555.38L662.03 582.41C746.21 610.7 816.23 665 883.17 722.35ZM795.77 543.9C941.53 581.85 1047.71 724.63 1031.28 881.35C1061.79 713.99 954.15 559.76 799.3 521.21C768.92 513.64 737.59 510.74 706.03 512.48C716.08 519.58 726 526.89 735.73 534.43L755.87 536.27L795.77 543.9Z" />
			<path class="shp2" d="M316.83 722.35C381.71 654.71 449.85 590.74 537.54 555.38L537.97 582.41C453.79 610.7 383.77 665 316.83 722.35ZM404.23 543.9C258.47 581.85 152.29 724.63 168.72 881.35C138.21 713.99 245.85 559.76 400.7 521.21C431.08 513.64 462.41 510.74 493.96 512.49C483.92 519.58 473.99 526.89 464.26 534.43L444.13 536.27L404.23 543.9Z" />
			<path class="shp1" d="M575.7 744.37C569.18 757.76 561.97 770.67 554.08 783.05C569.14 784.83 584.46 785.78 600 785.78C615.54 785.78 630.86 784.83 645.91 783.05C638.03 770.67 630.81 757.76 624.3 744.37C616.27 744.92 608.17 745.24 600 745.24C591.82 745.24 583.73 744.92 575.7 744.37Z" />
			<path class="shp1" d="M464.25 881.36C506.52 897.15 552.21 905.93 600 905.93C647.78 905.93 693.46 897.16 735.73 881.37C723.4 871.81 711.62 861.5 700.47 850.49C668.64 860.08 634.96 865.4 600 865.4C565.04 865.4 531.35 860.08 499.52 850.49C488.37 861.5 476.59 871.8 464.25 881.36Z" />
			<path fill-rule="evenodd" class="shp1" d="M760.81 899.26C772.47 906.91 784.51 913.95 796.92 920.31C774.6 995.27 736.29 1047.52 691.85 1076.8C672.26 1089.7 651.52 1098.24 630.39 1102.4L599.57 1181.93L569.61 1102.4C548.48 1098.24 527.74 1089.71 508.15 1076.8C463.7 1047.52 425.4 995.26 403.07 920.29C415.48 913.93 427.52 906.89 439.18 899.24C443.15 914.05 447.69 927.99 452.88 940.81C497.59 961.7 547.39 973.52 600 973.52C652.61 973.52 702.4 961.7 747.12 940.81C752.31 927.99 756.84 914.06 760.81 899.26ZM717.23 995.96C680.23 1007.66 640.87 1014.05 600 1014.06C559.13 1014.05 519.77 1007.66 482.77 995.96C497.05 1015.94 513.12 1031.73 530.32 1043.08C574.38 1072.1 625.62 1072.1 669.68 1043.08C686.89 1031.74 702.95 1015.94 717.23 995.96Z" />
			<path class="shp1" d="M820.5 42.9C778.22 48.75 740.71 71.51 712.5 105.28C684.35 138.97 665.48 183.78 660.64 233.52C641.51 227.45 621.14 224.17 600 224.17C578.86 224.17 558.48 227.45 539.36 233.52C534.52 183.79 515.65 138.97 487.5 105.28C459.29 71.51 421.78 48.75 379.5 42.9C345.12 36.9 317.81 61.59 317.81 92.88C317.81 121.08 340.68 143.95 368.88 143.95C394.92 143.95 416.4 124.47 419.56 99.29C469.3 129.15 497.85 189.5 500.06 250.85C428.93 291.9 394.12 368.28 400.71 442.59C413.97 439.96 427.41 438.03 441 436.79C438.89 409.94 443.64 382.73 455.03 357.8C463.43 365.69 474.71 370.55 487.15 370.55C513.1 370.56 534.14 349.52 534.14 323.57C534.13 309.23 527.69 296.42 517.57 287.8C566.54 258.22 627.82 257.24 677.58 284.93C665.34 293.42 657.31 307.55 657.32 323.56C657.32 349.52 678.36 370.56 704.31 370.55C719.75 370.55 733.41 363.08 741.97 351.57C755.55 378.15 761.29 407.7 758.99 436.8C772.58 438.04 786.03 439.97 799.28 442.6C805.88 368.29 771.07 291.9 699.94 250.86C702.15 189.51 730.69 129.14 780.43 99.3C783.59 124.47 805.08 143.95 831.11 143.95C859.32 143.95 882.19 121.08 882.19 92.87C882.19 61.59 854.87 36.9 820.5 42.9Z" />
		</g>
		<text style="transform: matrix(2,0,0,2,600.001,1441.963)" >
			<tspan x="0" y="0" class="txt3">WORKBEE</tspan>
		</text>
		<text style="transform: matrix(2,0,0,2,599.997,1610.496)" >
			<tspan x="0" y="0" class="txt4">PROFESSIONAL TAGLINE</tspan>
		</text>
	</g>
</svg>