<svg xmlns="http://www.w3.org/2000/svg" viewBox="0 0 2000 1766" width="400" height="353">
	<style>
		tspan { white-space:pre }
		.shp0 { fill: #ffb13c } 
		.shp1 { fill: #0d151f } 
		.shp2 { fill: #ff9434 } 
	</style>
	<g >
		<g >
			<path class="shp0" d="M1449.35 1009.42C1474.03 901.1 1444.22 782.88 1359.86 698.52C1275.5 614.16 1157.27 584.35 1048.95 609.03C1024.27 717.35 1054.09 835.57 1138.45 919.93C1222.8 1004.29 1341.03 1034.11 1449.35 1009.42Z" />
			<path fill-rule="evenodd" class="shp1" d="M1465.23 836.21C1481.89 894.09 1483.52 955.44 1470.16 1014.1L1467.17 1027.24L1454.03 1030.24C1270.68 1072.01 1085.34 963.82 1033.07 782.24C1016.42 724.36 1014.77 663.02 1028.14 604.35L1031.13 591.21L1044.27 588.21C1227.62 546.44 1412.96 654.64 1465.23 836.21ZM1431.28 991.35C1467.62 792.02 1307.99 611.32 1106.03 622.48C1182.43 676.41 1251.55 742.66 1283.17 832.35C1218.32 764.75 1150.16 700.75 1062.45 665.38L1062.45 665.28C1050.75 867.55 1231.6 1027.75 1431.28 991.35Z" />
			<path class="shp0" d="M550.65 1009.42C525.97 901.1 555.78 782.88 640.14 698.52C724.5 614.16 842.73 584.35 951.05 609.03C975.73 717.35 945.91 835.57 861.55 919.93C777.2 1004.29 658.97 1034.11 550.65 1009.42Z" />
			<path fill-rule="evenodd" class="shp1" d="M955.73 588.21L968.87 591.21L971.86 604.35C985.23 663.02 983.58 724.36 966.93 782.24C914.65 963.82 729.32 1072 545.97 1030.24L532.83 1027.24L529.84 1014.1C516.47 955.43 518.11 894.09 534.77 836.21C587.04 654.63 772.38 546.44 955.73 588.21ZM937.55 665.28L937.54 665.38C849.84 700.75 781.68 764.75 716.83 832.35C748.45 742.66 817.57 676.42 893.97 622.48C692.01 611.32 532.38 792.02 568.72 991.35C768.39 1027.75 949.25 867.54 937.55 665.28Z" />
			<path class="shp2" d="M1283.17 832.35C1218.29 764.71 1150.15 700.74 1062.45 665.38L1062.03 692.41C1146.21 720.7 1216.23 775 1283.17 832.35ZM1195.77 653.9C1341.53 691.85 1447.71 834.63 1431.28 991.35C1461.79 823.99 1354.15 669.76 1199.3 631.21C1168.92 623.64 1137.59 620.74 1106.03 622.48C1116.08 629.58 1126 636.89 1135.73 644.43L1155.87 646.27L1195.77 653.9Z" />
			<path class="shp2" d="M716.83 832.35C781.71 764.71 849.85 700.74 937.54 665.38L937.97 692.41C853.79 720.7 783.77 775 716.83 832.35ZM804.23 653.9C658.47 691.85 552.29 834.63 568.72 991.35C538.21 823.99 645.85 669.76 800.7 631.21C831.08 623.64 862.41 620.74 893.96 622.49C883.92 629.58 873.99 636.89 864.26 644.43L844.13 646.27L804.23 653.9Z" />
			<path class="shp1" d="M975.7 854.37C969.18 867.76 961.97 880.67 954.08 893.05C969.14 894.83 984.46 895.78 1000 895.78C1015.54 895.78 1030.86 894.83 1045.91 893.05C1038.03 880.67 1030.81 867.76 1024.3 854.37C1016.27 854.92 1008.17 855.24 1000 855.24C991.82 855.24 983.73 854.92 975.7 854.37Z" />
			<path class="shp1" d="M864.25 991.36C906.52 1007.15 952.21 1015.93 1000 1015.93C1047.78 1015.93 1093.46 1007.16 1135.73 991.37C1123.4 981.81 1111.62 971.5 1100.47 960.49C1068.64 970.08 1034.96 975.4 1000 975.4C965.04 975.4 931.35 970.08 899.52 960.49C888.37 971.5 876.59 981.8 864.25 991.36Z" />
			<path fill-rule="evenodd" class="shp1" d="M1160.81 1009.26C1172.47 1016.91 1184.51 1023.95 1196.92 1030.31C1174.6 1105.27 1136.29 1157.52 1091.85 1186.8C1072.26 1199.7 1051.52 1208.24 1030.39 1212.4L999.57 1291.93L969.61 1212.4C948.48 1208.24 927.74 1199.71 908.15 1186.8C863.7 1157.52 825.4 1105.26 803.07 1030.29C815.48 1023.93 827.52 1016.89 839.18 1009.24C843.15 1024.05 847.69 1037.99 852.88 1050.81C897.59 1071.7 947.39 1083.52 1000 1083.52C1052.61 1083.52 1102.4 1071.7 1147.12 1050.81C1152.31 1037.99 1156.84 1024.06 1160.81 1009.26ZM1117.23 1105.96C1080.23 1117.66 1040.87 1124.05 1000 1124.06C959.13 1124.05 919.77 1117.66 882.77 1105.96C897.05 1125.94 913.12 1141.73 930.32 1153.08C974.38 1182.1 1025.62 1182.1 1069.68 1153.08C1086.89 1141.74 1102.95 1125.94 1117.23 1105.96Z" />
			<path class="shp1" d="M1220.5 152.9C1178.22 158.75 1140.71 181.51 1112.5 215.28C1084.35 248.97 1065.48 293.78 1060.64 343.52C1041.51 337.45 1021.14 334.17 1000 334.17C978.86 334.17 958.48 337.45 939.36 343.52C934.52 293.79 915.65 248.97 887.5 215.28C859.29 181.51 821.78 158.75 779.5 152.9C745.12 146.9 717.81 171.59 717.81 202.88C717.81 231.08 740.68 253.95 768.88 253.95C794.92 253.95 816.4 234.47 819.56 209.29C869.3 239.15 897.85 299.5 900.06 360.85C828.93 401.9 794.12 478.28 800.71 552.59C813.97 549.96 827.41 548.03 841 546.79C838.89 519.94 843.64 492.73 855.03 467.8C863.43 475.69 874.71 480.55 887.15 480.55C913.1 480.56 934.14 459.52 934.14 433.57C934.13 419.23 927.69 406.42 917.57 397.8C966.54 368.22 1027.82 367.24 1077.58 394.93C1065.34 403.42 1057.31 417.55 1057.32 433.56C1057.32 459.52 1078.36 480.56 1104.31 480.55C1119.75 480.55 1133.41 473.08 1141.97 461.57C1155.55 488.15 1161.29 517.7 1158.99 546.8C1172.58 548.04 1186.03 549.97 1199.28 552.6C1205.88 478.29 1171.07 401.9 1099.94 360.86C1102.15 299.51 1130.69 239.14 1180.43 209.3C1183.59 234.47 1205.08 253.95 1231.11 253.95C1259.32 253.95 1282.19 231.08 1282.19 202.87C1282.19 171.59 1254.87 146.9 1220.5 152.9Z" />
		</g>
		<path fill="#0d151f" aria-label="BeeORM"  d="M427.21 1333.66L427.21 1552L512.63 1552C555.03 1552 582.12 1534.79 582.12 1490.16C582.12 1460.2 569.69 1446.81 550.88 1439.48C568.41 1429.92 576.7 1416.85 576.7 1390.39C576.7 1349.91 553.43 1333.66 510.08 1333.66ZM510.08 1456.69C527.3 1456.69 545.78 1463.39 545.78 1488.25C545.78 1514.39 532.71 1521.4 510.72 1521.4L462.59 1521.4L462.59 1456.69ZM508.17 1364.26C529.85 1364.26 540.68 1373.5 540.68 1394.54C540.68 1415.89 531.12 1426.73 509.45 1426.73L462.59 1426.73L462.59 1364.26ZM681.89 1525.23C655.43 1525.23 645.87 1512.48 645.55 1486.98L744.36 1486.98L746.6 1462.11C746.6 1412.39 724.28 1389.12 679.66 1389.12C635.67 1389.12 610.49 1415.58 610.49 1473.91C610.49 1530.01 628.98 1555.51 676.79 1555.51C704.84 1555.51 741.18 1548.18 741.18 1548.18L740.54 1522.36C740.54 1522.36 707.07 1525.23 681.89 1525.23ZM645.23 1460.2C645.55 1429.6 656.07 1417.81 679.66 1417.81C702.93 1417.81 712.49 1428.33 712.49 1460.2ZM843.81 1525.23C817.36 1525.23 807.8 1512.48 807.48 1486.98L906.29 1486.98L908.52 1462.11C908.52 1412.39 886.21 1389.12 841.58 1389.12C797.6 1389.12 772.41 1415.58 772.41 1473.91C772.41 1530.01 790.9 1555.51 838.71 1555.51C866.76 1555.51 903.1 1548.18 903.1 1548.18L902.46 1522.36C902.46 1522.36 869 1525.23 843.81 1525.23ZM807.16 1460.2C807.48 1429.6 818 1417.81 841.58 1417.81C864.85 1417.81 874.41 1428.33 874.41 1460.2Z" />
		<path fill="#ff9433" aria-label="BeeORM"  d="M1025.5 1524.59C983.11 1524.59 973.23 1498.45 973.23 1443.94C973.23 1389.76 983.43 1361.07 1025.5 1361.07C1067.58 1361.07 1077.46 1389.76 1077.46 1443.94C1077.46 1499.41 1067.89 1524.59 1025.5 1524.59ZM1025.5 1555.51C1093.71 1555.51 1114.11 1518.21 1114.11 1443.94C1114.11 1370.63 1093.71 1330.15 1025.5 1330.15C957.29 1330.15 936.57 1370.95 936.57 1443.94C936.57 1517.58 956.97 1555.51 1025.5 1555.51ZM1241.93 1474.23L1273.49 1552L1312.38 1552L1276.36 1466.26C1299.63 1455.42 1312.06 1434.06 1312.06 1403.14C1312.06 1354.69 1286.24 1333.66 1238.11 1333.66L1155.23 1333.66L1155.23 1552L1190.61 1552L1190.61 1474.23ZM1275.72 1403.46C1275.72 1426.09 1265.52 1443.63 1238.74 1443.63L1190.61 1443.63L1190.61 1364.26L1238.11 1364.26C1263.61 1364.26 1275.72 1378.6 1275.72 1403.46ZM1352.22 1552L1387.6 1552L1387.6 1372.86L1392.38 1372.86L1444.02 1543.08L1480.99 1543.08L1532.63 1372.86L1537.41 1372.86L1537.41 1552L1573.11 1552L1573.11 1333.66L1511.27 1333.66L1462.51 1504.19L1413.74 1333.66L1352.22 1333.66Z" />
	</g>
</svg>