<svg xmlns="http://www.w3.org/2000/svg" viewBox="0 0 2000 1000" width="2000" height="1000">
	<style>
		tspan { white-space:pre }
		.shp0 { fill: #ffb13c } 
		.shp1 { fill: #0d151f } 
		.shp2 { fill: #ff9434 } 
	</style>
	<g id="katman 1">
		<g id="&lt;Group&gt;">
			<path id="&lt;Path&gt;" class="shp0" d="M817.94 690.08C834.26 618.46 814.54 540.28 758.76 484.5C702.98 428.71 624.8 409 553.17 425.32C536.85 496.95 556.57 575.12 612.35 630.91C668.13 686.69 746.31 706.41 817.94 690.08Z" />
			<path id="&lt;Compound Path&gt;" fill-rule="evenodd" class="shp1" d="M828.44 575.55C839.45 613.82 840.54 654.38 831.7 693.18L829.72 701.87L821.03 703.85C699.79 731.47 577.24 659.93 542.67 539.86C531.66 501.58 530.57 461.02 539.41 422.22L541.39 413.54L550.08 411.56C671.32 383.93 793.87 455.48 828.44 575.55ZM805.99 678.13C830.02 546.32 724.46 426.84 590.92 434.22C641.44 469.88 687.14 513.68 708.05 573C665.17 528.29 620.1 485.97 562.1 462.58L562.1 462.52C554.36 596.27 673.95 702.2 805.99 678.13Z" />
			<path id="&lt;Path&gt;" class="shp0" d="M223.67 690.08C207.35 618.46 227.06 540.28 282.84 484.5C338.63 428.71 416.8 409 488.43 425.32C504.75 496.95 485.04 575.12 429.25 630.91C373.47 686.69 295.29 706.41 223.67 690.08Z" />
			<path id="&lt;Compound Path&gt;" fill-rule="evenodd" class="shp1" d="M491.53 411.56L500.22 413.54L502.2 422.22C511.03 461.02 509.95 501.58 498.93 539.86C464.37 659.93 341.81 731.46 220.57 703.85L211.88 701.87L209.9 693.18C201.06 654.38 202.15 613.82 213.17 575.55C247.73 455.48 370.29 383.93 491.53 411.56ZM479.5 462.52L479.5 462.58C421.5 485.97 376.43 528.29 333.55 572.99C354.46 513.68 400.17 469.88 450.69 434.22C317.14 426.84 211.59 546.32 235.62 678.13C367.65 702.21 487.24 596.27 479.5 462.52Z" />
			<path id="&lt;Compound Path&gt;" class="shp2" d="M708.05 573C665.15 528.27 620.09 485.97 562.1 462.58L561.82 480.45C617.48 499.16 663.79 535.07 708.05 573ZM650.26 454.99C746.64 480.09 816.85 574.5 805.99 678.13C826.16 567.46 754.99 465.48 652.59 439.98C632.5 434.98 611.79 433.06 590.92 434.22C597.56 438.91 604.12 443.74 610.56 448.73L623.87 449.95L650.26 454.99Z" />
			<path id="&lt;Compound Path&gt;" class="shp2" d="M333.55 572.99C376.46 528.27 421.51 485.97 479.5 462.58L479.78 480.45C424.12 499.16 377.82 535.07 333.55 572.99ZM391.35 454.99C294.96 480.09 224.75 574.5 235.62 678.13C215.44 567.46 286.62 465.48 389.01 439.98C409.1 434.98 429.82 433.06 450.69 434.22C444.04 438.91 437.48 443.74 431.05 448.73L417.73 449.95L391.35 454.99Z" />
			<path id="&lt;Path&gt;" class="shp1" d="M504.73 587.55C500.42 596.41 495.65 604.95 490.44 613.13C500.4 614.31 510.52 614.94 520.8 614.94C531.08 614.94 541.21 614.31 551.16 613.13C545.95 604.95 541.18 596.41 536.87 587.55C531.56 587.92 526.2 588.13 520.8 588.13C515.4 588.13 510.04 587.92 504.73 587.55Z" />
			<path id="&lt;Path&gt;" class="shp1" d="M431.04 678.14C458.99 688.58 489.2 694.39 520.8 694.39C552.4 694.39 582.61 688.59 610.56 678.14C602.4 671.82 594.61 665.01 587.24 657.73C566.19 664.07 543.92 667.58 520.8 667.58C497.68 667.58 475.41 664.07 454.36 657.72C446.98 665.01 439.2 671.82 431.04 678.14Z" />
			<path id="&lt;Compound Path&gt;" fill-rule="evenodd" class="shp1" d="M627.14 689.98C634.85 695.03 642.81 699.69 651.02 703.89C636.26 753.46 610.93 788.01 581.54 807.38C568.59 815.91 554.87 821.55 540.9 824.31L520.52 876.89L500.7 824.31C486.73 821.55 473.02 815.91 460.07 807.38C430.67 788.01 405.34 753.46 390.58 703.89C398.79 699.68 406.75 695.02 414.46 689.96C417.08 699.76 420.09 708.97 423.52 717.45C453.08 731.27 486.01 739.08 520.8 739.08C555.59 739.08 588.52 731.26 618.09 717.45C621.52 708.98 624.52 699.76 627.14 689.98ZM598.32 753.92C573.86 761.66 547.83 765.88 520.8 765.89C493.77 765.88 467.75 761.66 443.29 753.92C452.73 767.13 463.35 777.58 474.73 785.08C503.86 804.27 537.75 804.27 566.88 785.08C578.26 777.58 588.88 767.13 598.32 753.92Z" />
			<path id="&lt;Path&gt;" class="shp1" d="M666.61 123.7C638.65 127.57 613.85 142.62 595.19 164.95C576.58 187.23 564.1 216.86 560.9 249.75C548.25 245.74 534.78 243.57 520.8 243.57C506.82 243.57 493.35 245.74 480.7 249.75C477.5 216.86 465.02 187.23 446.41 164.95C427.76 142.62 402.95 127.57 374.99 123.7C352.26 119.73 334.2 136.06 334.2 156.75C334.2 175.4 349.32 190.52 367.98 190.52C385.19 190.52 399.4 177.64 401.49 160.99C434.38 180.73 453.25 220.64 454.71 261.21C407.68 288.36 384.67 338.86 389.02 388C397.79 386.26 406.68 384.99 415.66 384.16C414.26 366.41 417.41 348.41 424.94 331.93C430.5 337.15 437.95 340.37 446.18 340.37C463.34 340.37 477.25 326.45 477.25 309.3C477.25 299.82 472.99 291.34 466.3 285.64C498.68 266.08 539.2 265.43 572.1 283.75C564.01 289.36 558.7 298.7 558.71 309.29C558.7 326.45 572.62 340.37 589.78 340.37C599.99 340.37 609.02 335.42 614.68 327.81C623.66 345.39 627.46 364.92 625.94 384.17C634.92 384.99 643.81 386.27 652.58 388.01C656.94 338.86 633.93 288.36 586.89 261.21C588.35 220.65 607.22 180.73 640.11 160.99C642.2 177.64 656.41 190.52 673.63 190.52C692.28 190.52 707.41 175.4 707.4 156.75C707.41 136.06 689.34 119.73 666.61 123.7Z" />
		</g>
		<path id="BeeORM " fill="#0d151f" aria-label="BeeORM"  d="M953.53 378.62L953.53 523L1010.02 523C1038.05 523 1055.97 511.62 1055.97 482.11C1055.97 462.3 1047.75 453.44 1035.31 448.6C1046.91 442.27 1052.39 433.63 1052.39 416.14C1052.39 389.37 1037 378.62 1008.33 378.62ZM1008.33 459.98C1019.72 459.98 1031.94 464.4 1031.94 480.84C1031.94 498.13 1023.3 502.77 1008.75 502.77L976.93 502.77L976.93 459.98ZM1007.07 398.85C1021.4 398.85 1028.57 404.97 1028.57 418.88C1028.57 433 1022.24 440.17 1007.91 440.17L976.93 440.17L976.93 398.85ZM1121.94 505.29C1104.45 505.29 1098.12 496.86 1097.91 480L1163.25 480L1164.73 463.56C1164.73 430.68 1149.97 415.29 1120.47 415.29C1091.38 415.29 1074.73 432.79 1074.73 471.36C1074.73 508.46 1086.95 525.32 1118.57 525.32C1137.12 525.32 1161.15 520.47 1161.15 520.47L1160.72 503.4C1160.72 503.4 1138.59 505.29 1121.94 505.29ZM1097.7 462.3C1097.91 442.06 1104.87 434.26 1120.47 434.26C1135.85 434.26 1142.18 441.22 1142.18 462.3ZM1229.02 505.29C1211.52 505.29 1205.2 496.86 1204.99 480L1270.33 480L1271.8 463.56C1271.8 430.68 1257.05 415.29 1227.54 415.29C1198.45 415.29 1181.8 432.79 1181.8 471.36C1181.8 508.46 1194.03 525.32 1225.64 525.32C1244.19 525.32 1268.22 520.47 1268.22 520.47L1267.8 503.4C1267.8 503.4 1245.67 505.29 1229.02 505.29ZM1204.78 462.3C1204.99 442.06 1211.94 434.26 1227.54 434.26C1242.93 434.26 1249.25 441.22 1249.25 462.3Z" />
		<path id="BeeORM " fill="#ff9433" aria-label="BeeORM"  d="M1349.16 504.87C1321.12 504.87 1314.59 487.59 1314.59 451.55C1314.59 415.72 1321.33 396.75 1349.16 396.75C1376.98 396.75 1383.51 415.72 1383.51 451.55C1383.51 488.22 1377.19 504.87 1349.16 504.87ZM1349.16 525.32C1394.26 525.32 1407.75 500.66 1407.75 451.55C1407.75 403.07 1394.26 376.3 1349.16 376.3C1304.05 376.3 1290.35 403.28 1290.35 451.55C1290.35 500.24 1303.84 525.32 1349.16 525.32ZM1492.27 471.57L1513.14 523L1538.85 523L1515.04 466.3C1530.42 459.14 1538.64 445.01 1538.64 424.57C1538.64 392.53 1521.57 378.62 1489.74 378.62L1434.94 378.62L1434.94 523L1458.34 523L1458.34 471.57ZM1514.62 424.78C1514.62 439.74 1507.87 451.34 1490.17 451.34L1458.34 451.34L1458.34 398.85L1489.74 398.85C1506.61 398.85 1514.62 408.34 1514.62 424.78ZM1565.2 523L1588.6 523L1588.6 404.54L1591.76 404.54L1625.9 517.1L1650.35 517.1L1684.5 404.54L1687.66 404.54L1687.66 523L1711.27 523L1711.27 378.62L1670.38 378.62L1638.13 491.38L1605.88 378.62L1565.2 378.62Z" />
		<path id="BUILD FOR SPEED " fill="#0d151f" aria-label="BUILD FOR SPEED"  d="M1068.55 586.43L1068.55 634L1087.16 634C1096.39 634 1102.29 630.25 1102.29 620.53C1102.29 614 1099.58 611.08 1095.49 609.49C1099.31 607.4 1101.11 604.56 1101.11 598.79C1101.11 589.98 1096.04 586.43 1086.6 586.43ZM1086.6 613.24C1090.35 613.24 1094.38 614.7 1094.38 620.11C1094.38 625.81 1091.53 627.33 1086.74 627.33L1076.25 627.33L1076.25 613.24ZM1086.18 593.1C1090.91 593.1 1093.27 595.11 1093.27 599.7C1093.27 604.35 1091.18 606.71 1086.46 606.71L1076.25 606.71L1076.25 593.1ZM1118.4 618.79L1118.4 586.43L1110.63 586.43L1110.63 618.65C1110.63 630.11 1116.74 634.76 1128.06 634.76C1139.44 634.76 1145.62 630.11 1145.62 618.65L1145.62 586.43L1137.85 586.43L1137.85 618.79C1137.85 625.18 1134.44 628.03 1128.06 628.03C1121.74 628.03 1118.4 625.25 1118.4 618.79ZM1156.18 634L1163.89 634L1163.89 586.43L1156.18 586.43ZM1201.52 634L1201.52 627.13L1182.57 627.13L1182.57 586.43L1174.86 586.43L1174.86 634ZM1224.3 634C1239.99 634 1243.33 624.49 1243.33 609.42C1243.33 594.63 1239.64 586.43 1224.3 586.43L1207.84 586.43L1207.84 634ZM1235.34 609.42C1235.34 619.83 1233.88 627.19 1224.3 627.19L1215.55 627.19L1215.55 593.17L1224.3 593.17C1233.88 593.17 1235.34 599 1235.34 609.42ZM1267.63 634L1275.34 634L1275.34 615.95L1293.46 615.95L1293.46 609.21L1275.34 609.21L1275.34 593.17L1297.14 593.17L1297.14 586.43L1267.63 586.43ZM1321.38 628.03C1312.14 628.03 1309.99 622.33 1309.99 610.46C1309.99 598.66 1312.21 592.41 1321.38 592.41C1330.54 592.41 1332.69 598.66 1332.69 610.46C1332.69 622.54 1330.61 628.03 1321.38 628.03ZM1321.38 634.76C1336.24 634.76 1340.68 626.64 1340.68 610.46C1340.68 594.49 1336.24 585.67 1321.38 585.67C1306.52 585.67 1302 594.56 1302 610.46C1302 626.5 1306.45 634.76 1321.38 634.76ZM1368.52 617.06L1375.4 634L1383.87 634L1376.02 615.32C1381.09 612.96 1383.8 608.31 1383.8 601.57C1383.8 591.02 1378.18 586.43 1367.69 586.43L1349.64 586.43L1349.64 634L1357.34 634L1357.34 617.06ZM1375.89 601.64C1375.89 606.57 1373.66 610.39 1367.83 610.39L1357.34 610.39L1357.34 593.1L1367.69 593.1C1373.25 593.1 1375.89 596.22 1375.89 601.64ZM1436.16 587.27C1436.16 587.27 1427.13 585.6 1421.09 585.6C1411.58 585.6 1405.26 589.56 1405.26 599.14C1405.26 607.4 1409.7 610.53 1419.98 613.17C1427.27 614.9 1429.42 616.29 1429.42 620.32C1429.42 625.32 1426.72 627.96 1420.81 627.96C1415.88 627.96 1406.51 626.71 1406.51 626.71L1405.74 632.89C1405.74 632.89 1415.12 634.76 1421.3 634.76C1430.67 634.76 1437.2 630.25 1437.2 619.83C1437.2 611.71 1433.59 609.07 1423.59 606.29C1415.47 604.07 1412.97 603.03 1412.97 598.59C1412.97 594.49 1415.95 592.41 1421.78 592.41C1425.81 592.41 1435.53 593.52 1435.53 593.52ZM1462.96 619.21C1473.8 619.21 1479.14 613.17 1479.14 602.4C1479.14 591.71 1473.8 586.43 1462.96 586.43L1445.53 586.43L1445.53 634L1453.24 634L1453.24 619.21ZM1453.24 612.54L1453.24 593.1L1462.89 593.1C1468.66 593.1 1471.23 595.88 1471.23 602.4C1471.23 609 1468.66 612.54 1462.89 612.54ZM1486.57 634L1516.57 634L1516.57 627.19L1494.28 627.19L1494.28 613.31L1512.4 613.31L1512.4 606.64L1494.28 606.64L1494.28 593.17L1516.57 593.17L1516.57 586.43L1486.57 586.43ZM1524.97 634L1554.97 634L1554.97 627.19L1532.68 627.19L1532.68 613.31L1550.8 613.31L1550.8 606.64L1532.68 606.64L1532.68 593.17L1554.97 593.17L1554.97 586.43L1524.97 586.43ZM1579.83 634C1595.52 634 1598.86 624.49 1598.86 609.42C1598.86 594.63 1595.18 586.43 1579.83 586.43L1563.37 586.43L1563.37 634ZM1590.87 609.42C1590.87 619.83 1589.41 627.19 1579.83 627.19L1571.08 627.19L1571.08 593.17L1579.83 593.17C1589.41 593.17 1590.87 599 1590.87 609.42Z" />
	</g>
</svg>