<svg xmlns="http://www.w3.org/2000/svg" viewBox="0 0 1299 366" width="200" height="56">
	<style>
		tspan { white-space:pre }
		.shp0 { fill: #ffb13c } 
		.shp1 { fill: #0d151f } 
		.shp2 { fill: #ff9434 } 
	</style>
	<g >
		<g >
			<path class="shp0" d="M277.78 264.03C284.3 235.38 276.42 204.11 254.1 181.8C231.79 159.49 200.52 151.6 171.87 158.13C165.34 186.78 173.23 218.05 195.54 240.36C217.85 262.67 249.12 270.56 277.78 264.03Z" />
			<path fill-rule="evenodd" class="shp1" d="M281.97 218.22C286.38 233.53 286.81 249.75 283.28 265.27L282.49 268.75L279.01 269.54C230.52 280.59 181.49 251.97 167.67 203.94C163.26 188.63 162.83 172.41 166.36 156.89L167.16 153.41L170.63 152.62C219.13 141.57 268.15 170.19 281.97 218.22ZM273 259.25C282.61 206.53 240.38 158.74 186.97 161.69C207.18 175.95 225.46 193.47 233.82 217.2C216.67 199.32 198.64 182.39 175.44 173.03L175.44 173.01C172.34 226.51 220.18 268.88 273 259.25Z" />
			<path class="shp0" d="M40.07 264.03C33.54 235.38 41.42 204.11 63.74 181.8C86.05 159.48 117.32 151.6 145.97 158.13C152.5 186.78 144.62 218.05 122.3 240.36C99.99 262.67 68.72 270.56 40.07 264.03Z" />
			<path fill-rule="evenodd" class="shp1" d="M147.21 152.62L150.69 153.41L151.48 156.89C155.01 172.41 154.58 188.63 150.17 203.94C136.35 251.97 87.32 280.59 38.83 269.54L35.35 268.75L34.56 265.27C31.03 249.75 31.46 233.53 35.87 218.22C49.69 170.19 98.72 141.57 147.21 152.62ZM142.4 173.01L142.4 173.03C119.2 182.39 101.17 199.32 84.02 217.2C92.39 193.47 110.67 175.95 130.87 161.69C77.46 158.73 35.23 206.53 44.85 259.25C97.66 268.88 145.5 226.51 142.4 173.01Z" />
			<path class="shp2" d="M233.82 217.2C216.66 199.31 198.64 182.39 175.44 173.03L175.33 180.18C197.59 187.66 216.11 202.03 233.82 217.2ZM210.7 170C249.26 180.03 277.34 217.8 273 259.25C281.07 214.99 252.6 174.19 211.64 163.99C203.6 161.99 195.31 161.23 186.97 161.69C189.63 163.56 192.25 165.5 194.82 167.49L200.15 167.98L210.7 170Z" />
			<path class="shp2" d="M84.02 217.2C101.18 199.31 119.21 182.39 142.4 173.03L142.51 180.18C120.25 187.66 101.73 202.03 84.02 217.2ZM107.14 170C68.58 180.03 40.5 217.8 44.85 259.25C36.78 214.99 65.25 174.19 106.2 163.99C114.24 161.99 122.53 161.23 130.87 161.69C128.22 163.56 125.59 165.5 123.02 167.49L117.69 167.98L107.14 170Z" />
			<path class="shp1" d="M152.49 223.02C150.77 226.56 148.86 229.98 146.77 233.25C150.76 233.72 154.81 233.97 158.92 233.97C163.03 233.97 167.08 233.72 171.07 233.25C168.98 229.98 167.07 226.56 165.35 223.02C163.22 223.17 161.08 223.25 158.92 223.25C156.76 223.25 154.62 223.17 152.49 223.02Z" />
			<path class="shp1" d="M123.01 259.26C134.2 263.43 146.28 265.75 158.92 265.76C171.56 265.76 183.64 263.43 194.82 259.26C191.56 256.73 188.44 254 185.5 251.09C177.08 253.63 168.17 255.03 158.92 255.03C149.67 255.03 140.76 253.63 132.34 251.09C129.39 254 126.28 256.73 123.01 259.26Z" />
			<path fill-rule="evenodd" class="shp1" d="M201.46 263.99C204.54 266.01 207.73 267.88 211.01 269.56C205.1 289.38 194.97 303.21 183.22 310.95C178.03 314.36 172.55 316.62 166.96 317.72L158.81 338.76L150.88 317.72C145.29 316.62 139.81 314.36 134.63 310.95C122.87 303.2 112.74 289.38 106.83 269.55C110.12 267.87 113.3 266.01 116.38 263.99C117.43 267.9 118.63 271.59 120.01 274.98C131.83 280.51 145.01 283.63 158.92 283.63C172.84 283.63 186.01 280.51 197.83 274.98C199.21 271.59 200.41 267.91 201.46 263.99ZM189.93 289.57C180.14 292.66 169.73 294.35 158.92 294.35C148.11 294.35 137.7 292.66 127.91 289.57C131.69 294.85 135.94 299.03 140.49 302.03C152.14 309.71 165.7 309.71 177.35 302.03C181.9 299.03 186.15 294.85 189.93 289.57Z" />
			<path class="shp1" d="M217.24 37.48C206.06 39.03 196.14 45.05 188.68 53.98C181.23 62.89 176.24 74.74 174.96 87.9C169.9 86.29 164.51 85.43 158.92 85.43C153.33 85.43 147.94 86.29 142.88 87.9C141.6 74.75 136.61 62.89 129.16 53.98C121.7 45.05 111.78 39.03 100.6 37.48C91.51 35.89 84.28 42.42 84.28 50.7C84.28 58.16 90.33 64.21 97.79 64.21C104.68 64.21 110.36 59.06 111.19 52.4C124.35 60.29 131.9 76.26 132.49 92.49C113.67 103.34 104.47 123.54 106.21 143.2C109.72 142.5 113.27 141.99 116.87 141.67C116.31 134.56 117.56 127.37 120.58 120.77C122.8 122.86 125.78 124.15 129.07 124.15C135.94 124.15 141.5 118.58 141.5 111.72C141.5 107.93 139.8 104.54 137.12 102.26C150.07 94.43 166.28 94.17 179.44 101.5C176.2 103.74 174.08 107.48 174.08 111.72C174.08 118.58 179.65 124.15 186.51 124.15C190.59 124.15 194.21 122.17 196.47 119.13C200.07 126.16 201.58 133.97 200.98 141.67C204.57 142 208.13 142.51 211.63 143.2C213.38 123.55 204.17 103.34 185.36 92.49C185.94 76.26 193.49 60.29 206.65 52.4C207.48 59.06 213.16 64.21 220.05 64.21C227.51 64.21 233.56 58.16 233.56 50.7C233.56 42.42 226.34 35.89 217.24 37.48Z" />
		</g>
		<path fill="#0d151f" aria-label="BeeORM"  d="M340 87.45L340 279L409.46 279C443.92 279 465.95 263.9 465.95 224.75C465.95 198.47 455.84 186.72 440.55 180.29C454.81 171.9 461.55 160.44 461.55 137.23C461.55 101.72 442.63 87.45 407.38 87.45ZM407.38 195.39C421.38 195.39 436.41 201.26 436.41 223.07C436.41 246 425.78 252.16 407.9 252.16L368.77 252.16L368.77 195.39ZM405.83 114.3C423.45 114.3 432.26 122.41 432.26 140.86C432.26 159.6 424.49 169.11 406.86 169.11L368.77 169.11L368.77 114.3ZM547.07 255.51C525.56 255.51 517.78 244.33 517.52 221.96L597.86 221.96L599.68 200.14C599.68 156.52 581.54 136.11 545.25 136.11C509.49 136.11 489.02 159.32 489.02 210.49C489.02 259.71 504.05 282.08 542.92 282.08C565.73 282.08 595.27 275.64 595.27 275.64L594.75 252.99C594.75 252.99 567.54 255.51 547.07 255.51ZM517.27 198.47C517.52 171.62 526.08 161.28 545.25 161.28C564.17 161.28 571.95 170.5 571.95 198.47ZM678.72 255.51C657.21 255.51 649.44 244.33 649.18 221.96L729.52 221.96L731.33 200.14C731.33 156.52 713.19 136.11 676.91 136.11C641.14 136.11 620.67 159.32 620.67 210.49C620.67 259.71 635.7 282.08 674.57 282.08C697.38 282.08 726.93 275.64 726.93 275.64L726.41 252.99C726.41 252.99 699.2 255.51 678.72 255.51ZM648.92 198.47C649.18 171.62 657.73 161.28 676.91 161.28C695.83 161.28 703.6 170.5 703.6 198.47Z" />
		<path fill="#ff9433" aria-label="BeeORM"  d="M826.44 254.95C791.97 254.95 783.94 232.02 783.94 184.21C783.94 136.67 792.23 111.5 826.44 111.5C860.65 111.5 868.69 136.67 868.69 184.21C868.69 232.86 860.91 254.95 826.44 254.95ZM826.44 282.08C881.9 282.08 898.49 249.36 898.49 184.21C898.49 119.89 881.9 84.38 826.44 84.38C770.98 84.38 754.14 120.17 754.14 184.21C754.14 248.8 770.72 282.08 826.44 282.08ZM1002.41 210.77L1028.07 279L1059.69 279L1030.4 203.78C1049.32 194.27 1059.43 175.54 1059.43 148.41C1059.43 105.91 1038.43 87.45 999.3 87.45L931.92 87.45L931.92 279L960.69 279L960.69 210.77ZM1029.88 148.69C1029.88 168.55 1021.59 183.93 999.82 183.93L960.69 183.93L960.69 114.3L999.3 114.3C1020.03 114.3 1029.88 126.88 1029.88 148.69ZM1092.08 279L1120.85 279L1120.85 121.85L1124.73 121.85L1166.72 271.17L1196.78 271.17L1238.76 121.85L1242.65 121.85L1242.65 279L1271.68 279L1271.68 87.45L1221.4 87.45L1181.75 237.06L1142.1 87.45L1092.08 87.45Z" />
	</g>
</svg>